<svg xmlns="http://www.w3.org/2000/svg" viewBox="0 0 54.23 54.23"><defs><style>.cls-1{fill:#fff;}</style></defs><g id="Capa_2" data-name="Capa 2"><g id="Design"><path class="cls-1" d="M34.06,13.05H20.5a7.07,7.07,0,0,0-7.07,7.06V33.68a7.07,7.07,0,0,0,7.07,7.06H34.06a7.06,7.06,0,0,0,7.06-7.06V20.11A7.06,7.06,0,0,0,34.06,13.05ZM27.34,35.54a8.43,8.43,0,1,1,8.43-8.43A8.44,8.44,0,0,1,27.34,35.54Zm8.92-15.41a2,2,0,1,1,2-2A2,2,0,0,1,36.26,20.13Z"/><path class="cls-1" d="M27.11,0A27.12,27.12,0,1,0,54.23,27.11,27.14,27.14,0,0,0,27.11,0ZM44.34,33.68A10.28,10.28,0,0,1,34.06,44H20.5A10.28,10.28,0,0,1,10.22,33.68V20.11A10.28,10.28,0,0,1,20.5,9.83H34.06A10.28,10.28,0,0,1,44.34,20.11Z"/><path class="cls-1" d="M27.34,21.72a5.4,5.4,0,1,0,5.4,5.39A5.4,5.4,0,0,0,27.34,21.72Z"/></g></g></svg>