<svg xmlns="http://www.w3.org/2000/svg" viewBox="0 0 54.59 54.59"><defs><style>.cls-1{fill:#fff;}</style></defs><g id="Capa_2" data-name="Capa 2"><g id="Design"><path class="cls-1" d="M27.29,0a27.3,27.3,0,1,0,27.3,27.29A27.32,27.32,0,0,0,27.29,0Zm18,36.72A2.62,2.62,0,0,1,43.76,38a7.34,7.34,0,0,1-2,.57A1.52,1.52,0,0,0,40.13,40c-.14,1-.43,1.09-1.41,1A5.46,5.46,0,0,1,38,41a6.24,6.24,0,0,0-5.29,1.13c-.31.25-.65.45-1,.67a7.32,7.32,0,0,1-8.23.3c-.77-.44-1.49-.95-2.23-1.44a4.87,4.87,0,0,0-2-.73,12.89,12.89,0,0,0-3.4.2c-.59.07-1.15-.1-1.18-.7-.08-1.45-1-1.8-2.18-1.93a6.73,6.73,0,0,1-1.67-.52,2.43,2.43,0,0,1-1.39-1.21v-.56a1.49,1.49,0,0,1,.84-.56,9.58,9.58,0,0,0,6.39-4.92c1.25-2.07,1.05-2.54-1.25-3.35l-.4-.14a4.77,4.77,0,0,1-1.39-.78c-1-.89-.42-2.18.79-2.47.89-.21,1.66.36,2.52.46.57.07.8-.12.73-.73a30.15,30.15,0,0,1-.1-4.75,8,8,0,0,1,4.14-6.81,10.46,10.46,0,0,1,11.22,0,8,8,0,0,1,4.12,6.16,27.53,27.53,0,0,1,0,5.37c-.06.78.09.92.86.74,1-.22,1.76-.71,2.75-.28a1.52,1.52,0,0,1,1,1.32,1.44,1.44,0,0,1-.54,1,5.78,5.78,0,0,1-1.61.85c-.43.17-.88.31-1.3.51-.87.4-1.12.94-.71,1.8,1.4,3,3.47,5.23,6.81,6a1.61,1.61,0,0,1,1,.59Z"/></g></g></svg>