<svg xmlns="http://www.w3.org/2000/svg" viewBox="0 0 54.59 54.59"><defs><style>.cls-1{fill:#fff;}</style></defs><g id="Capa_2" data-name="Capa 2"><g id="Design"><path class="cls-1" d="M28.58,12.4A13.6,13.6,0,0,0,17.55,34a1.46,1.46,0,0,1,.14,1.44l-1.57,3.45,4.51-1.23a1.2,1.2,0,0,1,.38,0,1.41,1.41,0,0,1,.72.19A13.6,13.6,0,1,0,28.58,12.4Zm8.09,18.88a4.08,4.08,0,0,1-3,2.25A6.33,6.33,0,0,1,30.28,33a14.36,14.36,0,0,1-2.88-1.37,16.54,16.54,0,0,1-4.61-4.29,18.72,18.72,0,0,1-1.07-1.61,9.25,9.25,0,0,1-1-2.35,5.49,5.49,0,0,1-.13-1.07A4.22,4.22,0,0,1,22,19a1.91,1.91,0,0,1,2.08-.31,4.54,4.54,0,0,1,1.4,2.11A3.59,3.59,0,0,1,26,22.67a3.72,3.72,0,0,1-1,1.6.67.67,0,0,0-.08.91,10.84,10.84,0,0,0,5.43,4.65.59.59,0,0,0,.77-.17c.4-.5.8-1.47,1.42-1.73a2.85,2.85,0,0,1,2.41.54c.64.39,1.71.86,1.89,1.65A2,2,0,0,1,36.67,31.28Z"/><path class="cls-1" d="M27.29,0a27.3,27.3,0,1,0,27.3,27.29A27.32,27.32,0,0,0,27.29,0Zm1.29,42.48a16.5,16.5,0,0,1-7.76-1.94l-6.9,1.89a1.2,1.2,0,0,1-.38,0,1.44,1.44,0,0,1-1.31-2l2.5-5.52a16.48,16.48,0,1,1,13.85,7.55Z"/></g></g></svg>